<?xml version="1.0"?><svg xmlns="http://www.w3.org/2000/svg" width="800" height="800" viewBox="0 0 800 800" fill="none"><path d="M519.93 397.942C519.941 350.942 519.979 322.104 519.863 275.104C519.853 271.436 520.115 267.775 519.97 264.103C519.829 260.508 519.939 256.904 519.939 253.304C519.939 249.637 519.939 245.97 519.939 242.304C519.939 238.704 519.934 235.104 519.941 231.504C519.948 227.569 518.87 224.073 516.158 221.087C513.174 217.8 509.428 216.526 505.139 216.51C499.206 216.487 493.273 216.504 487.339 216.504C471.606 216.504 455.871 216.643 440.14 216.424C435.067 216.353 430.01 216.711 424.938 216.54C419.944 216.372 414.939 216.504 409.939 216.504C404.873 216.504 399.806 216.504 394.739 216.504C389.673 216.504 384.606 216.504 379.539 216.504C374.539 216.504 369.539 216.504 364.539 216.504C359.473 216.504 354.406 216.504 349.339 216.504C344.339 216.504 339.339 216.504 334.339 216.504C329.273 216.504 324.206 216.504 319.139 216.504C314.073 216.504 309.006 216.504 303.939 216.504C298.939 216.504 293.939 216.504 288.939 216.504C283.873 216.504 278.806 216.504 273.739 216.504C258.406 216.504 243.073 216.504 227.739 216.504C219.273 216.504 210.806 216.538 202.339 216.492C196.698 216.461 192.382 218.858 189.372 223.525C188.077 225.533 187.542 227.882 187.541 230.304C187.537 243.304 187.476 256.304 187.608 269.303C187.628 271.241 187.557 273.17 187.557 275.104C187.537 388.237 187.556 501.37 187.5 614.504C187.496 621.922 192.225 627.509 198.734 628.927C199.413 629.075 200.07 629.099 200.739 629.099C302.739 629.104 404.739 629.105 506.739 629.101C512.047 629.101 517.527 625.012 519.169 619.513C519.703 617.724 519.938 615.942 519.938 614.104C519.94 593.77 519.943 593.275 519.928 572.942" stroke="black" stroke-width="11" stroke-linecap="round" stroke-linejoin="round"/><path d="M188.339 271.904C298.606 271.904 408.873 271.904 519.139 271.904" stroke="black" stroke-width="11" stroke-linecap="round" stroke-linejoin="round"/><path d="M270.539 215.903C270.539 208.303 270.603 200.703 270.522 193.104C270.433 184.77 266.692 178.315 259.717 173.939C247.89 166.518 232.45 171.256 226.554 183.911C225.236 186.74 224.514 189.737 224.528 192.904C224.562 200.57 224.539 208.237 224.539 215.903" stroke="black" stroke-width="11" stroke-linecap="round" stroke-linejoin="round"/><path d="M482.939 215.904C482.939 208.638 482.9 201.371 482.949 194.104C483.018 183.855 477.413 175.488 468.11 171.982C459.81 168.854 451.861 170.097 444.96 175.929C441.405 178.934 438.915 182.699 437.7 187.294C437.122 189.482 436.766 191.67 436.754 193.904C436.714 201.171 436.739 208.438 436.739 215.704" stroke="black" stroke-width="11" stroke-linecap="round" stroke-linejoin="round"/><circle cx="500.781" cy="485.156" r="60.1562" stroke="black" stroke-width="11"/><path d="M610.973 599.117C612.315 595.968 611.45 593.307 609.334 590.907L569.531 546.094L553.339 560.003L593.559 605.484C595.98 608.158 599.874 609.273 603.514 606.471C605.714 604.777 607.679 602.777 609.734 600.897C610.273 600.404 610.667 599.836 610.973 599.117Z" stroke="black" stroke-width="11" stroke-linecap="round" stroke-linejoin="round"/><path d="M537.939 534.305C544.273 541.505 550.606 548.705 556.939 555.905" stroke="black" stroke-width="11" stroke-linecap="round" stroke-linejoin="round"/><path d="M545.941 527.304C551.741 533.838 557.544 540.369 563.337 546.908" stroke="black" stroke-width="11" stroke-linecap="round" stroke-linejoin="round"/><path d="M523.387 472.942C514.978 481.344 506.574 489.75 498.168 498.156C497.841 498.482 497.515 498.808 497.189 499.135C496.699 499.627 496.209 499.627 495.72 499.135C495.598 499.013 495.476 498.89 495.352 498.768C490.456 493.953 485.559 489.139 480.664 484.322" stroke="black" stroke-width="11" stroke-linecap="round" stroke-linejoin="round"/><path d="M270.312 393.75L240.206 422.285L223.438 405.847" stroke="black" stroke-width="11" stroke-linecap="round" stroke-linejoin="round"/><path d="M435.663 421.55H304.688" stroke="black" stroke-width="11" stroke-linecap="round" stroke-linejoin="round"/><path d="M479.886 393.754C434.353 393.75 388.819 393.75 343.286 393.75" stroke="black" stroke-width="11" stroke-linecap="round" stroke-linejoin="round"/><path d="M316.687 393.801H304.688" stroke="black" stroke-width="11" stroke-linecap="round" stroke-linejoin="round"/><path d="M481.69 580.739C423.49 580.739 365.29 580.744 307.09 580.739H305.09" stroke="black" stroke-width="11" stroke-linecap="round" stroke-linejoin="round"/><path d="M441.913 552.967C398.513 552.967 384.489 552.967 341.089 552.967" stroke="black" stroke-width="11" stroke-linecap="round" stroke-linejoin="round"/><path d="M316.087 552.967C312.287 552.967 308.487 552.967 304.688 552.967" stroke="black" stroke-width="11" stroke-linecap="round" stroke-linejoin="round"/><path d="M245.194 543.766C239.972 544.302 235.267 546.068 231.361 549.649C225.081 555.408 222.377 562.417 223.815 570.929C225.429 580.487 231.03 586.696 240.129 589.502C248.134 591.972 255.6 590.338 262.076 584.905C266.633 581.082 269.49 576.11 270.131 570.309C271.063 561.888 268.425 554.561 261.669 549.044C256.948 545.188 251.461 543.568 245.397 543.766" stroke="black" stroke-width="11" stroke-linecap="round" stroke-linejoin="round"/><path d="M412.5 496.138H359.455H306.41H304.688" stroke="black" stroke-width="11" stroke-linecap="round" stroke-linejoin="round"/><path d="M411.823 468.462L342.883 468.462" stroke="black" stroke-width="11" stroke-linecap="round" stroke-linejoin="round"/><path d="M316.288 468.476H304.688" stroke="black" stroke-width="11" stroke-linecap="round" stroke-linejoin="round"/><path d="M243.833 459.375C242.144 459.783 240.347 459.945 238.785 460.641C232.391 463.488 227.407 467.882 225.005 474.669C221.862 483.554 223.456 491.721 229.694 498.664C235.332 504.94 242.509 507.213 250.935 505.885C261.167 504.273 268.841 495.831 270.102 485.859C270.975 478.96 269.142 472.623 264.327 467.304C260.509 463.088 255.923 460.471 250.323 459.558C248.221 459.215 246.129 459.504 244.036 459.375" stroke="black" stroke-width="11" stroke-linecap="round" stroke-linejoin="round"/><path d="M481.688 346.497H479.888H305.888H304.688" stroke="black" stroke-width="11" stroke-linecap="round" stroke-linejoin="round"/><path d="M482.089 318.75C435.089 318.75 388.089 318.75 341.089 318.75" stroke="black" stroke-width="11" stroke-linecap="round" stroke-linejoin="round"/><path d="M316.087 318.75C312.287 318.75 308.487 318.75 304.688 318.75" stroke="black" stroke-width="11" stroke-linecap="round" stroke-linejoin="round"/><path d="M225.07 309.376C223.678 309.624 223.437 310.624 223.438 311.81C223.442 325.743 223.431 339.676 223.452 353.608C223.455 355.468 224.221 356.231 226.089 356.234C239.946 356.256 253.802 356.256 267.658 356.234C269.527 356.231 270.293 355.468 270.296 353.608C270.317 339.676 270.319 325.743 270.294 311.811C270.291 309.723 269.817 309.378 267.455 309.377C253.394 309.374 239.334 309.376 225.274 309.376" stroke="black" stroke-width="11" stroke-linecap="round" stroke-linejoin="round"/></svg>