<!DOCTYPE svg PUBLIC "-//W3C//DTD SVG 1.1//EN" "http://www.w3.org/Graphics/SVG/1.1/DTD/svg11.dtd">
<!-- Uploaded to: SVG Repo, www.svgrepo.com, Transformed by: SVG Repo Mixer Tools -->
<svg fill="#000000" version="1.1" id="Layer_1" xmlns="http://www.w3.org/2000/svg" xmlns:xlink="http://www.w3.org/1999/xlink" viewBox="-148.8 -148.8 793.60 793.60" xml:space="preserve" width="80px" height="80px" stroke="#000000" stroke-width="0.004960000000000001" transform="matrix(-1, 0, 0, 1, 0, 0)rotate(0)">
<g id="SVGRepo_bgCarrier" stroke-width="0"/>
<g id="SVGRepo_tracerCarrier" stroke-linecap="round" stroke-linejoin="round" stroke="#CCCCCC" stroke-width="2.976"/>
<g id="SVGRepo_iconCarrier"> <g> <g> <g> <path d="M456,80h-42.104C415.224,74.872,416,69.536,416,64c0-35.288-28.712-64-64-64c-35.288,0-64,28.712-64,64 c0,5.536,0.776,10.872,2.104,16H40C17.944,80,0,97.944,0,120v288c0,22.056,17.944,40,40,40h112v32h-32v16h256v-16h-32v-32h112 c22.056,0,40-17.944,40-40V120C496,97.944,478.056,80,456,80z M429.376,128.688c1.696,1.696,2.624,3.944,2.624,6.344 c0,4.944-4.024,8.968-8.968,8.968c-2.36,0-4.672-0.96-6.344-2.624l-26.296-26.296c4.808-3.616,9.072-7.88,12.688-12.688 L429.376,128.688z M352,16c26.472,0,48,21.528,48,48s-21.528,48-48,48s-48-21.528-48-48S325.528,16,352,16z M328,480H168v-32h160 V480z M480,408c0,13.232-10.768,24-24,24H40c-13.232,0-24-10.768-24-24v-8h464V408z M480,384H16V120c0-13.232,10.768-24,24-24 h256.656c11.088,19.096,31.712,32,55.344,32c8.48,0,16.568-1.696,23.984-4.704l29.392,29.392 c4.648,4.648,11.08,7.312,17.656,7.312C436.8,160,448,148.8,448,135.032c0-6.672-2.592-12.944-7.312-17.656L419.312,96H456 c13.232,0,24,10.768,24,24V384z"/> <path d="M272,144H48v208h224v-32h32V176h-32V144z M256,336H64V160h192v16h-80v144h80V336z M288,192v112h-96V192H288z"/> <path d="M320,320h128V176H320V320z M336,192h96v112h-96V192z"/> <rect x="208" y="208" width="64" height="16"/> <rect x="208" y="240" width="64" height="16"/> <rect x="208" y="272" width="64" height="16"/> <rect x="352" y="208" width="64" height="16"/> <rect x="352" y="240" width="64" height="16"/> <rect x="352" y="272" width="64" height="16"/> <rect x="80" y="176" width="80" height="16"/> <rect x="80" y="208" width="80" height="16"/> <rect x="80" y="240" width="80" height="16"/> <rect x="80" y="272" width="80" height="16"/> <rect x="80" y="304" width="80" height="16"/> <rect x="128" y="48" width="16" height="16"/> <rect x="160" y="48" width="16" height="16"/> <rect x="192" y="48" width="16" height="16"/> <rect x="224" y="48" width="16" height="16"/> <rect x="256" y="48" width="16" height="16"/> </g> </g> </g> </g>
</svg>